<svg width="463" height="3199" viewBox="0 0 463 3199" fill="none" xmlns="http://www.w3.org/2000/svg">
<path d="M201.5 21.5C820.5 1234.5 -431 1521 210 2907" stroke="url(#paint0_linear_1615_11)" stroke-width="42" stroke-linecap="round"/>
<path d="M332.797 3108.48C318.087 3091.65 290.389 3076.13 253.446 3072.5C235.26 3070.67 218.848 3072.25 204.781 3077.2L199.201 3068.01C220.339 3047.08 234.53 3015.7 236.38 2983.73C237.348 2967.57 235.604 2953.35 230.75 2940.43L239.94 2934.85C257.08 2954.69 289.03 2968.83 322.19 2971.16C338.485 2972.35 353.622 2970.64 367.252 2965.96L372.833 2975.15C351.6 2994.93 336.527 3033.73 335.943 3064.34C335.718 3079.75 337.805 3092.56 341.987 3102.9L332.797 3108.48Z" fill="#AD977A"/>
<defs>
<linearGradient id="paint0_linear_1615_11" x1="200.225" y1="21.5" x2="200.225" y2="2907" gradientUnits="userSpaceOnUse">
<stop stop-color="#C4B4A0" stop-opacity="0.47"/>
<stop offset="1" stop-color="#AD977A"/>
</linearGradient>
</defs>
</svg>
